<mxfile host="Electron" agent="Mozilla/5.0 (Windows NT 10.0; Win64; x64) AppleWebKit/537.36 (KHTML, like Gecko) draw.io/24.7.8 Chrome/128.0.6613.36 Electron/32.0.1 Safari/537.36" version="24.7.8">
  <diagram name="Page-1" id="74e2e168-ea6b-b213-b513-2b3c1d86103e">
    <mxGraphModel dx="1036" dy="614" grid="1" gridSize="10" guides="1" tooltips="1" connect="1" arrows="1" fold="1" page="1" pageScale="1" pageWidth="1100" pageHeight="850" background="none" math="0" shadow="0">
      <root>
        <mxCell id="0" />
        <mxCell id="1" parent="0" />
        <mxCell id="qh07ioRMHzCG0XXzUdd--8" style="edgeStyle=orthogonalEdgeStyle;rounded=0;orthogonalLoop=1;jettySize=auto;html=1;exitX=0.5;exitY=1;exitDx=0;exitDy=0;exitPerimeter=0;entryX=0.5;entryY=0;entryDx=0;entryDy=0;" edge="1" parent="1" source="qh07ioRMHzCG0XXzUdd--1" target="qh07ioRMHzCG0XXzUdd--6">
          <mxGeometry relative="1" as="geometry" />
        </mxCell>
        <mxCell id="qh07ioRMHzCG0XXzUdd--1" value="Среднее время заявки(Заявки)" style="strokeWidth=2;html=1;shape=mxgraph.flowchart.terminator;whiteSpace=wrap;" vertex="1" parent="1">
          <mxGeometry x="500" y="30" width="100" height="60" as="geometry" />
        </mxCell>
        <mxCell id="qh07ioRMHzCG0XXzUdd--9" style="edgeStyle=orthogonalEdgeStyle;rounded=0;orthogonalLoop=1;jettySize=auto;html=1;exitX=0.5;exitY=1;exitDx=0;exitDy=0;entryX=0.5;entryY=0;entryDx=0;entryDy=0;" edge="1" parent="1" source="qh07ioRMHzCG0XXzUdd--6" target="qh07ioRMHzCG0XXzUdd--7">
          <mxGeometry relative="1" as="geometry" />
        </mxCell>
        <mxCell id="qh07ioRMHzCG0XXzUdd--6" value="Время=0&lt;div&gt;Кол-во обслуж=0&lt;/div&gt;" style="rounded=0;whiteSpace=wrap;html=1;" vertex="1" parent="1">
          <mxGeometry x="490" y="120" width="120" height="60" as="geometry" />
        </mxCell>
        <mxCell id="qh07ioRMHzCG0XXzUdd--11" style="edgeStyle=orthogonalEdgeStyle;rounded=0;orthogonalLoop=1;jettySize=auto;html=1;exitX=0.5;exitY=1;exitDx=0;exitDy=0;entryX=0.5;entryY=0;entryDx=0;entryDy=0;" edge="1" parent="1" source="qh07ioRMHzCG0XXzUdd--7" target="qh07ioRMHzCG0XXzUdd--10">
          <mxGeometry relative="1" as="geometry" />
        </mxCell>
        <mxCell id="qh07ioRMHzCG0XXzUdd--24" style="edgeStyle=orthogonalEdgeStyle;rounded=0;orthogonalLoop=1;jettySize=auto;html=1;exitX=1;exitY=0.5;exitDx=0;exitDy=0;entryX=0.5;entryY=0;entryDx=0;entryDy=0;" edge="1" parent="1" source="qh07ioRMHzCG0XXzUdd--7" target="qh07ioRMHzCG0XXzUdd--23">
          <mxGeometry relative="1" as="geometry">
            <Array as="points">
              <mxPoint x="800" y="230" />
              <mxPoint x="800" y="620" />
              <mxPoint x="550" y="620" />
            </Array>
          </mxGeometry>
        </mxCell>
        <mxCell id="qh07ioRMHzCG0XXzUdd--7" value="i=0; Заявки.Кол-во-1;1" style="shape=hexagon;perimeter=hexagonPerimeter2;whiteSpace=wrap;html=1;fixedSize=1;" vertex="1" parent="1">
          <mxGeometry x="490" y="210" width="120" height="40" as="geometry" />
        </mxCell>
        <mxCell id="qh07ioRMHzCG0XXzUdd--10" value="Заявка = Заявки[i]" style="rounded=0;whiteSpace=wrap;html=1;" vertex="1" parent="1">
          <mxGeometry x="490" y="280" width="120" height="60" as="geometry" />
        </mxCell>
        <mxCell id="qh07ioRMHzCG0XXzUdd--16" style="edgeStyle=orthogonalEdgeStyle;rounded=0;orthogonalLoop=1;jettySize=auto;html=1;exitX=1;exitY=0.5;exitDx=0;exitDy=0;exitPerimeter=0;entryX=0.5;entryY=0;entryDx=0;entryDy=0;" edge="1" parent="1" source="qh07ioRMHzCG0XXzUdd--12" target="qh07ioRMHzCG0XXzUdd--15">
          <mxGeometry relative="1" as="geometry" />
        </mxCell>
        <mxCell id="qh07ioRMHzCG0XXzUdd--17" value="да" style="edgeLabel;html=1;align=center;verticalAlign=middle;resizable=0;points=[];" vertex="1" connectable="0" parent="qh07ioRMHzCG0XXzUdd--16">
          <mxGeometry x="0.0257" y="2" relative="1" as="geometry">
            <mxPoint as="offset" />
          </mxGeometry>
        </mxCell>
        <mxCell id="qh07ioRMHzCG0XXzUdd--19" style="edgeStyle=orthogonalEdgeStyle;rounded=0;orthogonalLoop=1;jettySize=auto;html=1;exitX=0;exitY=0.5;exitDx=0;exitDy=0;exitPerimeter=0;" edge="1" parent="1" source="qh07ioRMHzCG0XXzUdd--12">
          <mxGeometry relative="1" as="geometry">
            <mxPoint x="550" y="570" as="targetPoint" />
          </mxGeometry>
        </mxCell>
        <mxCell id="qh07ioRMHzCG0XXzUdd--20" value="нет" style="edgeLabel;html=1;align=center;verticalAlign=middle;resizable=0;points=[];" vertex="1" connectable="0" parent="qh07ioRMHzCG0XXzUdd--19">
          <mxGeometry x="0.0726" y="3" relative="1" as="geometry">
            <mxPoint as="offset" />
          </mxGeometry>
        </mxCell>
        <mxCell id="qh07ioRMHzCG0XXzUdd--12" value="Заявка.Статус==&lt;div&gt;&quot;Выполнена&quot;&lt;/div&gt;" style="strokeWidth=2;html=1;shape=mxgraph.flowchart.decision;whiteSpace=wrap;" vertex="1" parent="1">
          <mxGeometry x="500" y="375" width="100" height="100" as="geometry" />
        </mxCell>
        <mxCell id="qh07ioRMHzCG0XXzUdd--14" style="edgeStyle=orthogonalEdgeStyle;rounded=0;orthogonalLoop=1;jettySize=auto;html=1;exitX=0.5;exitY=1;exitDx=0;exitDy=0;entryX=0.5;entryY=0;entryDx=0;entryDy=0;entryPerimeter=0;" edge="1" parent="1" source="qh07ioRMHzCG0XXzUdd--10" target="qh07ioRMHzCG0XXzUdd--12">
          <mxGeometry relative="1" as="geometry" />
        </mxCell>
        <mxCell id="qh07ioRMHzCG0XXzUdd--18" style="edgeStyle=orthogonalEdgeStyle;rounded=0;orthogonalLoop=1;jettySize=auto;html=1;exitX=0.5;exitY=1;exitDx=0;exitDy=0;" edge="1" parent="1" source="qh07ioRMHzCG0XXzUdd--15">
          <mxGeometry relative="1" as="geometry">
            <mxPoint x="550" y="590" as="targetPoint" />
          </mxGeometry>
        </mxCell>
        <mxCell id="qh07ioRMHzCG0XXzUdd--15" value="Время+=Заявка.Время&lt;div&gt;Кол-во обслуж ++&lt;/div&gt;" style="rounded=0;whiteSpace=wrap;html=1;" vertex="1" parent="1">
          <mxGeometry x="630" y="475" width="120" height="60" as="geometry" />
        </mxCell>
        <mxCell id="qh07ioRMHzCG0XXzUdd--22" style="edgeStyle=orthogonalEdgeStyle;rounded=0;orthogonalLoop=1;jettySize=auto;html=1;exitX=0;exitY=0.5;exitDx=0;exitDy=0;entryX=0;entryY=0.5;entryDx=0;entryDy=0;" edge="1" parent="1" source="qh07ioRMHzCG0XXzUdd--21" target="qh07ioRMHzCG0XXzUdd--7">
          <mxGeometry relative="1" as="geometry">
            <Array as="points">
              <mxPoint x="420" y="600" />
              <mxPoint x="420" y="230" />
            </Array>
          </mxGeometry>
        </mxCell>
        <mxCell id="qh07ioRMHzCG0XXzUdd--21" value="" style="ellipse;whiteSpace=wrap;html=1;" vertex="1" parent="1">
          <mxGeometry x="540" y="590" width="20" height="20" as="geometry" />
        </mxCell>
        <mxCell id="qh07ioRMHzCG0XXzUdd--23" value="Среднее время=Время/Кол-во обслуж" style="rounded=0;whiteSpace=wrap;html=1;" vertex="1" parent="1">
          <mxGeometry x="430" y="640" width="240" height="60" as="geometry" />
        </mxCell>
        <mxCell id="qh07ioRMHzCG0XXzUdd--26" value="Среднее время" style="strokeWidth=2;html=1;shape=mxgraph.flowchart.terminator;whiteSpace=wrap;" vertex="1" parent="1">
          <mxGeometry x="500" y="730" width="100" height="60" as="geometry" />
        </mxCell>
        <mxCell id="qh07ioRMHzCG0XXzUdd--27" style="edgeStyle=orthogonalEdgeStyle;rounded=0;orthogonalLoop=1;jettySize=auto;html=1;exitX=0.5;exitY=1;exitDx=0;exitDy=0;entryX=0.5;entryY=0;entryDx=0;entryDy=0;entryPerimeter=0;" edge="1" parent="1" source="qh07ioRMHzCG0XXzUdd--23" target="qh07ioRMHzCG0XXzUdd--26">
          <mxGeometry relative="1" as="geometry" />
        </mxCell>
      </root>
    </mxGraphModel>
  </diagram>
</mxfile>
